<svg xmlns="http://www.w3.org/2000/svg" width="118" height="118" fill="none"><rect width="118" height="118" fill="url(#a)" rx="59"/><rect width="89" height="89" x="14.5" y="14.5" fill="#131316" rx="44.5"/><rect width="89" height="89" x="14.5" y="14.5" stroke="url(#b)" rx="44.5"/><g clip-path="url(#c)" filter="url(#d)" shape-rendering="crispEdges"><path fill="url(#e)" d="M67.333 55.875c0 1.726-.933 3.125-2.083 3.125-1.15 0-2.083-1.399-2.083-3.125s.932-3.125 2.083-3.125c1.15 0 2.083 1.4 2.083 3.125z"/><path fill="url(#f)" d="M54.833 55.875c0 1.726-.932 3.125-2.083 3.125-1.15 0-2.083-1.399-2.083-3.125s.932-3.125 2.083-3.125c1.15 0 2.083 1.4 2.083 3.125z"/><path fill="url(#g)" fill-rule="evenodd" d="M61.635 38.273a1.563 1.563 0 0 1 1.842-1.221c8.779 1.782 15.69 8.692 17.471 17.47a1.562 1.562 0 1 1-3.062.622c-1.533-7.548-7.482-13.497-15.03-15.03a1.563 1.563 0 0 1-1.22-1.841zm-5.27 0a1.562 1.562 0 0 1-1.22 1.842c-7.549 1.532-13.498 7.481-15.03 15.03a1.563 1.563 0 0 1-3.063-.622c1.782-8.779 8.693-15.69 17.47-17.47a1.562 1.562 0 0 1 1.843 1.22zM38.273 61.635a1.562 1.562 0 0 1 1.842 1.22c1.532 7.55 7.481 13.498 15.03 15.03a1.562 1.562 0 1 1-.622 3.063c-8.778-1.782-15.689-8.692-17.47-17.47a1.562 1.562 0 0 1 1.22-1.843zm41.455 0a1.562 1.562 0 0 1 1.22 1.843c-1.782 8.778-8.692 15.688-17.47 17.47a1.562 1.562 0 1 1-.622-3.063c7.548-1.532 13.497-7.48 15.03-15.03a1.562 1.562 0 0 1 1.842-1.22zm-28.233 4.768a1.562 1.562 0 0 1 2.185-.325A8.888 8.888 0 0 0 59 67.854a8.89 8.89 0 0 0 5.32-1.776 1.562 1.562 0 1 1 1.86 2.51C64.154 70.09 61.677 70.98 59 70.98c-2.677 0-5.155-.889-7.18-2.39a1.563 1.563 0 0 1-.325-2.186z" clip-rule="evenodd"/><path stroke="url(#h)" stroke-width=".5" d="M67.083 55.875c0 .82-.222 1.552-.568 2.071-.347.52-.8.804-1.265.804-.466 0-.918-.283-1.265-.804-.346-.519-.568-1.25-.568-2.07 0-.821.222-1.553.568-2.072.347-.52.8-.804 1.265-.804.466 0 .918.283 1.265.804.346.52.568 1.25.568 2.071zm-12.5 0c0 .82-.222 1.552-.568 2.071-.347.52-.8.804-1.265.804-.466 0-.918-.283-1.265-.804-.346-.519-.568-1.25-.568-2.07 0-.821.222-1.553.568-2.072.347-.52.8-.804 1.265-.804.466 0 .918.283 1.265.804.346.52.568 1.25.568 2.071zm7.297-17.553c.145-.71.837-1.17 1.548-1.025 8.68 1.762 15.513 8.596 17.275 17.275a1.313 1.313 0 0 1-2.572.522c-1.553-7.646-7.579-13.672-15.225-15.224a1.313 1.313 0 0 1-1.026-1.548zm-5.76 0a1.313 1.313 0 0 1-1.025 1.548c-7.647 1.552-13.673 7.578-15.225 15.224a1.313 1.313 0 0 1-2.573-.522c1.762-8.68 8.596-15.513 17.276-17.275a1.312 1.312 0 0 1 1.547 1.025zM38.323 61.88a1.313 1.313 0 0 1 1.547 1.026c1.552 7.646 7.578 13.672 15.225 15.224a1.312 1.312 0 1 1-.522 2.573c-8.68-1.762-15.514-8.595-17.276-17.275a1.312 1.312 0 0 1 1.026-1.547zm41.355 0c.71.145 1.17.837 1.025 1.548-1.762 8.68-8.596 15.513-17.275 17.275a1.312 1.312 0 0 1-.522-2.573c7.646-1.552 13.672-7.578 15.225-15.224.144-.71.837-1.17 1.547-1.026zm-27.982 4.672a1.312 1.312 0 0 1 1.836-.273A9.138 9.138 0 0 0 59 68.104c2.027 0 3.91-.67 5.468-1.825a1.312 1.312 0 1 1 1.563 2.109c-1.985 1.471-4.41 2.341-7.031 2.341-2.62 0-5.047-.87-7.032-2.341a1.312 1.312 0 0 1-.273-1.836z"/></g><defs><radialGradient id="e" cx="0" cy="0" r="1" gradientTransform="matrix(0 76.405 -76.4051 0 59 34.927)" gradientUnits="userSpaceOnUse"><stop stop-color="#fff"/><stop offset="1" stop-color="#fff" stop-opacity="0"/></radialGradient><radialGradient id="f" cx="0" cy="0" r="1" gradientTransform="matrix(0 76.405 -76.4051 0 59 34.927)" gradientUnits="userSpaceOnUse"><stop stop-color="#fff"/><stop offset="1" stop-color="#fff" stop-opacity="0"/></radialGradient><radialGradient id="g" cx="0" cy="0" r="1" gradientTransform="matrix(0 76.405 -76.4051 0 59 34.927)" gradientUnits="userSpaceOnUse"><stop stop-color="#fff"/><stop offset="1" stop-color="#fff" stop-opacity="0"/></radialGradient><linearGradient id="a" x1="59" x2="59" y1="0" y2="118" gradientUnits="userSpaceOnUse"><stop stop-color="#1C1C21"/><stop offset="1" stop-color="#1C1C21" stop-opacity="0"/></linearGradient><linearGradient id="b" x1="59" x2="59" y1="14" y2="104" gradientUnits="userSpaceOnUse"><stop stop-color="#474752"/><stop offset="1" stop-color="#474752" stop-opacity="0"/></linearGradient><linearGradient id="h" x1="59" x2="59" y1="37.02" y2="80.98" gradientUnits="userSpaceOnUse"><stop offset=".735" stop-color="#fff" stop-opacity="0"/><stop offset="1" stop-color="#fff" stop-opacity=".8"/></linearGradient><clipPath id="c"><path fill="#fff" d="M34 34h50v50H34z"/></clipPath><filter id="d" width="57.959" height="57.959" x="30.02" y="33.02" color-interpolation-filters="sRGB" filterUnits="userSpaceOnUse"><feFlood flood-opacity="0" result="BackgroundImageFix"/><feColorMatrix in="SourceAlpha" result="hardAlpha" values="0 0 0 0 0 0 0 0 0 0 0 0 0 0 0 0 0 0 127 0"/><feOffset dy="3"/><feGaussianBlur stdDeviation="3.5"/><feComposite in2="hardAlpha" operator="out"/><feColorMatrix values="0 0 0 0 0 0 0 0 0 0 0 0 0 0 0 0 0 0 0.18 0"/><feBlend in2="BackgroundImageFix" result="effect1_dropShadow_1805_1566"/><feBlend in="SourceGraphic" in2="effect1_dropShadow_1805_1566" result="shape"/></filter></defs></svg>