<svg xmlns="http://www.w3.org/2000/svg" width="83" height="95" viewBox="0 0 83 95" fill="none" class="absolute right-[-20px] z-[-1] translate-y-[25px]  scale-75 sm:scale-100"><g clip-path="url(#clip0_1135_1828)"><path d="M21.9932 49.323C22.1192 51.8041 20.5096 54.132 18.0168 54.8112C17.3521 54.9923 16.9601 55.6778 17.1412 56.3426C17.3224 57.0073 18.0079 57.3992 18.6726 57.2181C22.4873 56.1787 24.8884 52.4981 24.4429 48.6845C26.7097 47.7955 28.5822 46.1673 29.787 44.009C30.1228 43.4075 29.9074 42.6476 29.3059 42.3119C28.7046 41.9764 27.9446 42.1914 27.6088 42.793C26.5433 44.7019 24.7951 46.0695 22.6862 46.6441C18.3951 47.8134 13.9528 45.2735 12.7836 40.9824C12.6025 40.3177 11.9169 39.9258 11.2523 40.1069C10.5876 40.288 10.1956 40.9735 10.3767 41.6382C11.7852 46.8074 16.8212 50.0321 21.9932 49.323Z" fill="#242C38"></path><path d="M29.9332 58.3731C29.752 57.7083 29.0664 57.3165 28.4018 57.4976C22.7836 59.0284 19.4582 64.8446 20.9891 70.4629C21.0049 70.521 21.0229 70.5786 21.0397 70.6366C20.5757 70.6982 20.1108 70.7884 19.6471 70.9147C18.9824 71.0958 18.5904 71.7813 18.7715 72.4461C18.9527 73.1108 19.6383 73.5027 20.3029 73.3216C24.594 72.1524 29.0363 74.6922 30.2055 78.9833C30.3866 79.6481 31.0722 80.0399 31.7368 79.8588C32.4014 79.6777 32.7935 78.9923 32.6123 78.3275C31.4489 74.0576 27.8095 71.1147 23.6635 70.6189C23.5607 70.3541 23.4709 70.0822 23.3959 69.8071C22.2267 65.516 24.7665 61.0737 29.0576 59.9044C29.7223 59.7234 30.1143 59.0379 29.9332 58.3731Z" fill="#242C38"></path><path d="M68.2118 36.9114C67.4652 34.1716 65.6635 31.8734 63.2089 30.491C63.2482 29.4275 63.1269 28.3715 62.8463 27.3417C61.4965 22.3877 56.8147 19.2189 51.8747 19.5875C51.9898 18.5959 51.9147 17.587 51.6467 16.6037C50.7917 13.4657 48.1492 11.2847 45.1157 10.8574C39.6099 8.48692 34.0767 7.68774 30.28 8.72226C28.1695 9.29732 26.5807 10.8451 25.8617 12.7502C24.2756 11.4732 22.1213 10.9453 20.0108 11.5204C16.214 12.5549 11.8511 16.0505 8.30885 20.8864C5.91147 22.7935 4.74058 26.0135 5.59562 29.1516C5.86354 30.1348 6.31061 31.0424 6.9128 31.8386C2.46861 34.0269 0.0415119 39.1328 1.39134 44.0867C1.67194 45.1165 2.10297 46.0879 2.67653 46.9847C1.2625 49.4211 0.875626 52.3157 1.62216 55.0555C2.20574 57.1973 3.41331 59.0044 4.99421 60.3377C4.28026 62.3614 4.20019 64.517 4.77005 66.6084C5.77947 70.313 8.72401 73.157 12.4094 74.0754C12.4791 74.548 12.5771 75.0174 12.7028 75.4786C14.0644 80.4758 18.528 84.0058 23.6677 84.2229C26.6842 87.1831 31.0216 88.3274 35.1188 87.211C39.6108 85.987 42.7983 82.3294 43.6535 78.0469C46.5629 81.3036 51.1653 82.8387 55.6573 81.6147C59.7546 80.4983 62.9119 77.3119 64.0098 73.2306C68.3289 70.4361 70.3848 65.1297 69.0232 60.1326C68.8975 59.6714 68.7439 59.2172 68.5642 58.7746C71.2743 56.1135 72.3691 52.1689 71.3597 48.4643C70.7898 46.3729 69.6273 44.5559 67.9854 43.1741C68.6714 41.2231 68.7954 39.0532 68.2118 36.9114ZM34.463 84.8041C31.0888 85.7235 27.5072 84.701 25.1159 82.1358C24.8789 81.8816 24.5471 81.7378 24.1997 81.7389C19.9608 81.7521 16.2228 78.9081 15.1096 74.8227C14.9431 74.2114 14.8378 73.5823 14.7968 72.9526C14.7587 72.3689 14.3198 71.8898 13.7414 71.8009C10.5899 71.3172 8.0131 69.0215 7.1769 65.9526C6.79657 64.5568 6.79503 63.1239 7.16379 61.7539C9.39183 62.8483 12.0099 63.1706 14.5874 62.4682C15.252 62.2871 15.6441 61.6017 15.463 60.9369C15.2818 60.2721 14.5962 59.8803 13.9316 60.0614C9.64052 61.2306 5.19823 58.6908 4.02901 54.3997C3.39961 52.0897 3.82563 49.6349 5.19813 47.6653C5.50789 47.2207 5.49519 46.6269 5.16664 46.196C4.53153 45.3631 4.07119 44.4328 3.7982 43.4309C2.62898 39.1398 5.1688 34.6975 9.4599 33.5283C13.751 32.3591 18.1933 34.8989 19.3625 39.19C19.5437 39.8548 20.2292 40.2466 20.8938 40.0655C21.5585 39.8844 21.9505 39.199 21.7694 38.5342C20.2985 33.1361 14.8714 29.8573 9.46494 30.9664C8.76386 30.2924 8.26134 29.4458 8.00247 28.4958C7.41797 26.3506 8.21719 24.1495 9.85449 22.8443C9.9204 22.8034 9.98307 22.7564 10.0413 22.7026C10.5565 22.3274 11.1461 22.0372 11.7964 21.86C13.8113 21.311 15.9169 21.9474 17.2919 23.5213C17.7453 24.0401 18.5334 24.0933 19.0519 23.6398C19.5707 23.1867 19.6238 22.3988 19.1705 21.88C17.6009 20.0836 15.2926 19.114 12.9576 19.184C15.5184 16.473 18.2523 14.5851 20.6666 13.9272C22.8342 13.3366 25.0783 14.6195 25.6689 16.7873L29.9121 32.3598C28.597 31.7966 27.0912 31.6544 25.607 32.0589C24.9424 32.24 24.5504 32.9254 24.7315 33.5902C24.9126 34.255 25.5982 34.6468 26.2628 34.4657C28.4304 33.8751 30.6745 35.158 31.2652 37.3258L39.1471 66.2528C37.1248 64.73 34.6185 63.8478 31.9555 63.8572C31.267 63.8602 30.7103 64.4201 30.7127 65.1089C30.7151 65.7979 31.2756 66.3543 31.9644 66.3517C36.2052 66.3368 39.9449 69.1808 41.0586 73.2681C42.4207 78.267 39.4619 83.4421 34.463 84.8041ZM66.2625 57.4903C65.8092 57.8603 65.6739 58.4957 65.9373 59.0182C66.2213 59.5817 66.4498 60.1772 66.6163 60.7886C67.7295 64.874 65.951 69.221 62.2912 71.36C61.9913 71.5353 61.7781 71.8277 61.703 72.1668C60.9435 75.5904 58.3757 78.2885 55.0015 79.2079C50.0026 80.57 44.8275 77.6112 43.4655 72.6123C43.3733 72.2739 43.2661 71.9427 43.1462 71.6184C43.1467 71.5077 43.1338 71.3952 43.1033 71.2832L32.273 31.5353C31.6823 29.3676 32.9654 27.1236 35.133 26.533C35.7976 26.3519 36.1897 25.6664 36.0085 25.0016C35.8274 24.3369 35.1418 23.945 34.4772 24.1261C32.993 24.5305 31.7674 25.4169 30.9199 26.5693L28.0758 16.1315C27.4851 13.9637 28.7682 11.7197 30.9358 11.1291C33.3501 10.4713 36.6638 10.7114 40.2459 11.7486C38.1981 12.8726 36.7008 14.8794 36.2595 17.2237C36.132 17.9008 36.5775 18.5529 37.2544 18.6801C37.9314 18.8076 38.5835 18.3622 38.711 17.6851C39.0975 15.6313 40.5893 14.0146 42.6041 13.4656C43.2545 13.2884 43.9099 13.2394 44.5441 13.3014C44.6214 13.3183 44.6992 13.3269 44.7764 13.3288C46.8499 13.6229 48.6554 15.1142 49.2399 17.2595C49.4988 18.2096 49.4952 19.1941 49.2329 20.1305C44.0111 21.9174 40.9975 27.4961 42.4683 32.8942C42.6494 33.559 43.335 33.9508 43.9996 33.7697C44.6643 33.5886 45.0563 32.9032 44.8752 32.2384C43.7059 27.9473 46.2458 23.505 50.5369 22.3358C54.828 21.1666 59.2703 23.7064 60.4395 27.9975C60.7125 28.9994 60.7877 30.0347 60.6631 31.0746C60.5985 31.6127 60.8888 32.1307 61.3813 32.3568C63.5631 33.3579 65.1755 35.2573 65.8049 37.5672C66.9741 41.8583 64.4343 46.3006 60.1432 47.4698C59.4786 47.6509 59.0866 48.3364 59.2677 49.0012C59.4488 49.6659 60.1344 50.0578 60.799 49.8767C63.3766 49.1743 65.4693 47.5685 66.8342 45.4952C67.8471 46.4887 68.5725 47.7243 68.9528 49.1201C69.789 52.189 68.733 55.4746 66.2625 57.4903Z" fill="#242C38"></path><path d="M56.1772 43.0347C53.6843 43.7139 51.1163 42.5243 49.9663 40.3223C54.7831 38.3097 57.4871 32.9759 56.0787 27.8068C55.8975 27.142 55.2119 26.7502 54.5473 26.9313C53.8827 27.1124 53.4907 27.7979 53.6718 28.4626C54.841 32.7537 52.3012 37.196 48.0101 38.3652C45.9012 38.9399 43.7009 38.6481 41.8143 37.5436C41.22 37.1956 40.4558 37.3954 40.1078 37.9899C39.7597 38.5845 39.9594 39.3485 40.554 39.6965C42.6872 40.9453 45.1269 41.3986 47.5313 41.0147C49.082 44.5272 53.0183 46.481 56.833 45.4415C57.4976 45.2604 57.8897 44.575 57.7085 43.9102C57.5274 43.2454 56.8418 42.8536 56.1772 43.0347Z" fill="#242C38"></path><path d="M56.1736 58.2043C55.7099 58.3307 55.2634 58.4889 54.8324 58.6711C54.8175 58.6126 54.8037 58.5538 54.7878 58.4957C53.257 52.8775 47.4408 49.5521 41.8226 51.083C41.158 51.2641 40.7659 51.9495 40.947 52.6143C41.1282 53.2791 41.8138 53.6709 42.4784 53.4898C46.7695 52.3206 51.2118 54.8604 52.381 59.1515C52.4559 59.4266 52.5165 59.7065 52.5622 59.9869C49.2409 62.5174 47.5974 66.8997 48.7608 71.1696C48.942 71.8344 49.6276 72.2262 50.2922 72.0451C50.9568 71.864 51.3488 71.1786 51.1677 70.5138C49.9985 66.2227 52.5383 61.7804 56.8294 60.6112C57.494 60.4301 57.8861 59.7446 57.7049 59.0799C57.5238 58.4151 56.8382 58.0232 56.1736 58.2043Z" fill="#242C38"></path></g><defs><clipPath id="clip0_1135_1828"><rect width="77" height="77" fill="white" transform="translate(-12 20.2427) rotate(-15.2417)"></rect></clipPath></defs></svg>