<svg xmlns="http://www.w3.org/2000/svg" width="130" height="130" fill="none"><rect width="130" height="130" fill="url(#a)" rx="65"/><rect width="89" height="89" x="20.5" y="20.5" fill="#131316" rx="44.5"/><rect width="89" height="89" x="20.5" y="20.5" stroke="url(#b)" rx="44.5"/><g clip-path="url(#c)" filter="url(#d)" shape-rendering="crispEdges"><path fill="url(#e)" d="M81.566 45.21v-1.46H47.5v1.462h9.304l1.584 2.744-9.476 16.42 9.476 16.418-1.584 2.744H47.5V85h34.066v-1.462h-9.304l-1.584-2.744 9.476-16.418-9.476-16.42 1.584-2.744h9.304v-.002zM67.864 64.374l-3.331 5.772-3.33-5.772 3.33-5.771 3.33 5.771z"/><path stroke="url(#f)" stroke-width=".5" d="m57.02 45.087-.072-.125H47.75V44h33.566v.962h-9.198l-.072.125-1.584 2.744-.073.125.073.125 9.403 16.295-9.403 16.293-.073.125.073.125 1.584 2.744.072.125h9.198v.962H47.75v-.962h9.198l.072-.125 1.584-2.744.072-.125-.072-.125-9.403-16.293 9.403-16.295.072-.125-.072-.125-1.584-2.744zm11.06 19.412.072-.125-.072-.125-3.33-5.771-.217-.376-.216.376-3.331 5.771-.072.125.072.125 3.33 5.772.217.375.216-.375 3.331-5.772z"/></g><defs><linearGradient id="a" x1="65" x2="65" y1="0" y2="130" gradientUnits="userSpaceOnUse"><stop stop-color="#1C1C21"/><stop offset="1" stop-color="#1C1C21" stop-opacity="0"/></linearGradient><linearGradient id="b" x1="65" x2="65" y1="20" y2="110" gradientUnits="userSpaceOnUse"><stop stop-color="#474752"/><stop offset="1" stop-color="#474752" stop-opacity="0"/></linearGradient><linearGradient id="f" x1="64.533" x2="64.533" y1="43.75" y2="85" gradientUnits="userSpaceOnUse"><stop offset=".735" stop-color="#fff" stop-opacity="0"/><stop offset="1" stop-color="#fff" stop-opacity=".8"/></linearGradient><radialGradient id="e" cx="0" cy="0" r="1" gradientTransform="matrix(0 71.6964 -59.21 0 64.533 41.786)" gradientUnits="userSpaceOnUse"><stop stop-color="#fff"/><stop offset="1" stop-color="#fff" stop-opacity="0"/></radialGradient><clipPath id="c"><path fill="#fff" d="M40 40h50v50H40z"/></clipPath><filter id="d" width="48.066" height="55.25" x="40.5" y="39.75" color-interpolation-filters="sRGB" filterUnits="userSpaceOnUse"><feFlood flood-opacity="0" result="BackgroundImageFix"/><feColorMatrix in="SourceAlpha" result="hardAlpha" values="0 0 0 0 0 0 0 0 0 0 0 0 0 0 0 0 0 0 127 0"/><feOffset dy="3"/><feGaussianBlur stdDeviation="3.5"/><feComposite in2="hardAlpha" operator="out"/><feColorMatrix values="0 0 0 0 0 0 0 0 0 0 0 0 0 0 0 0 0 0 0.18 0"/><feBlend in2="BackgroundImageFix" result="effect1_dropShadow_1782_192"/><feBlend in="SourceGraphic" in2="effect1_dropShadow_1782_192" result="shape"/></filter></defs></svg>