<svg xmlns="http://www.w3.org/2000/svg" viewBox="0 0 1080 1080" width="1080" height="1080" preserveAspectRatio="xMidYMid slice" style="width: 100%; height: 100%; transform: translate3d(0px, 0px, 0px);"><defs><clipPath id="__lottie_element_7"><rect width="1080" height="1080" x="0" y="0"></rect></clipPath></defs><g clip-path="url(#__lottie_element_7)"><g transform="matrix(1,0,0,1,540,540)" opacity="1" style="display: block;"><g opacity="1" transform="matrix(1,0,0,1,0,0)"><path fill="rgb(255,220,93)" fill-opacity="1" d=" M302.614013671875,-40.48400115966797 C272.385009765625,-53.858001708984375 229.19900512695312,-35.930999755859375 198.64199829101562,7.408999919891357 C178.572998046875,35.862998962402344 172.66200256347656,76.37999725341797 146.3040008544922,80.60399627685547 C136.23599243164062,82.2239990234375 130.76600646972656,76.0979995727539 127.9209976196289,67.2760009765625 C124.9219970703125,52.38999938964844 125.5790023803711,29.384000778198242 131.13600158691406,-2.7909998893737793 C131.13600158691406,-2.7909998893737793 191.11099243164062,-272.35198974609375 191.11099243164062,-272.35198974609375 C195.88299560546875,-292.95001220703125 184.69900512695312,-312.8900146484375 157.7760009765625,-319.3909912109375 C130.85400390625,-325.8919982910156 110.6050033569336,-312.6940002441406 105.81199645996094,-292.09600830078125 C105.81199645996094,-292.09600830078125 52.27199935913086,-47.685001373291016 52.27199935913086,-47.685001373291016 C41.48099899291992,6.293000221252441 21.474000930786133,-3.5139999389648438 26.31100082397461,-64.64900207519531 C26.31100082397461,-64.64900207519531 26.31100082397461,-64.6709976196289 26.31100082397461,-64.6709976196289 C26.31100082397461,-64.6709976196289 41.654998779296875,-351.239990234375 41.654998779296875,-351.239990234375 C42.90299987792969,-373.3909912109375 25.87299919128418,-391.4930114746094 0.7009999752044678,-392.45599365234375 C-24.47100067138672,-393.41900634765625 -42.61600112915039,-378.3169860839844 -43.90800094604492,-356.18701171875 C-43.90800094604492,-356.18701171875 -58.529998779296875,-62.67900085449219 -58.529998779296875,-62.67900085449219 C-61.65999984741211,-3.4260001182556152 -82.87000274658203,-25.753000259399414 -87.46700286865234,-68.677001953125 C-87.46700286865234,-68.677001953125 -121.48200225830078,-306.12701416015625 -121.48200225830078,-306.12701416015625 C-124.96199798583984,-328.5190124511719 -145.95399475097656,-343.9949951171875 -171.12600708007812,-339.9670104980469 C-196.29800415039062,-335.9169921875 -211.50999450683594,-315.10101318359375 -208.02999877929688,-292.7090148925781 C-208.02999877929688,-292.7090148925781 -175.30599975585938,-75.7030029296875 -175.30599975585938,-75.7030029296875 C-162.3260040283203,7.145999908447266 -179.29100036621094,30.086000442504883 -207.2209930419922,-59.87699890136719 C-207.2209930419922,-59.87699890136719 -242.11099243164062,-191.75799560546875 -242.11099243164062,-191.75799560546875 C-247.802001953125,-212.9250030517578 -268.6619873046875,-226.0570068359375 -294.8630065917969,-218.7030029296875 C-321.0639953613281,-211.34800720214844 -332.3590087890625,-190.27000427246094 -326.69000244140625,-169.10299682617188 C-326.69000244140625,-169.10299682617188 -292.5870056152344,-45.145999908447266 -292.5870056152344,-45.145999908447266 C-278.3370056152344,44.09600067138672 -278.3370056152344,79.31199645996094 -278.3370056152344,140.75399780273438 C-278.3370056152344,202.1999969482422 -250.0780029296875,392.5010070800781 -33.92599868774414,392.5010070800781 C182.22799682617188,392.5010070800781 226.68099975585938,172.92999267578125 228.74099731445312,159.0330047607422 C228.74099731445312,159.0330047607422 231.43299865722656,126.63600158691406 254.04400634765625,96.31999969482422 C286.1960144042969,53.220001220703125 308.7659912109375,27.240999221801758 322.4469909667969,11.699000358581543 C329.38299560546875,3.8410000801086426 336.12799072265625,-25.665000915527344 302.614013671875,-40.48400115966797z"></path></g><g opacity="1" transform="matrix(1,0,0,1,0,0)"><path fill="rgb(239,150,69)" fill-opacity="1" d=" M139.23500061035156,80.38800048828125 C132.66799926757812,77.71700286865234 127.11100006103516,70.84300231933594 126.45099639892578,55.89099884033203 C85.03900146484375,61.560001373291016 29.024999618530273,73.16100311279297 -14.074000358581543,115.3219985961914 C-70.02200317382812,170.01800537109375 -79.56400299072266,229.14300537109375 -79.1050033569336,268.6960144042969 C-78.73300170898438,300.58599853515625 -61.33100128173828,315.6919860839844 -56.23099899291992,268.4339904785156 C-49.81800079345703,208.74099731445312 -6.281000137329102,90.19400024414062 139.23500061035156,80.38800048828125z"></path></g></g></g></svg>