<svg xmlns="http://www.w3.org/2000/svg" width="57" height="56" viewBox="0 0 57 56" fill="none" class="scale-75  sm:inline-block sm:scale-100  translate-y-[-15px]  absolute left-[-20px] z-[-1]"><g clip-path="url(#clip0_1135_1770)"><path d="M51.25 28H42.5V21C42.5 17.1391 45.6391 14 49.5 14H50.375C51.8297 14 53 12.8297 53 11.375V6.125C53 4.67031 51.8297 3.5 50.375 3.5H49.5C39.8312 3.5 32 11.3312 32 21V47.25C32 50.1484 34.3516 52.5 37.25 52.5H51.25C54.1484 52.5 56.5 50.1484 56.5 47.25V33.25C56.5 30.3516 54.1484 28 51.25 28ZM19.75 28H11V21C11 17.1391 14.1391 14 18 14H18.875C20.3297 14 21.5 12.8297 21.5 11.375V6.125C21.5 4.67031 20.3297 3.5 18.875 3.5H18C8.33125 3.5 0.5 11.3312 0.5 21V47.25C0.5 50.1484 2.85156 52.5 5.75 52.5H19.75C22.6484 52.5 25 50.1484 25 47.25V33.25C25 30.3516 22.6484 28 19.75 28Z" fill="#242C38"></path></g><defs><clipPath id="clip0_1135_1770"><rect width="56" height="56" fill="white" transform="translate(0.5)"></rect></clipPath></defs></svg>