<svg xmlns="http://www.w3.org/2000/svg" width="57" height="56" viewBox="0 0 57 56" fill="none" class="scale-75  sm:inline-block sm:scale-100  translate-y-[15px]  absolute right-[-20px] z-[-1]"><g clip-path="url(#clip0_1135_1772)"><path d="M5.75 28H14.5V35C14.5 38.8609 11.3609 42 7.5 42H6.625C5.17031 42 4 43.1703 4 44.625V49.875C4 51.3297 5.17031 52.5 6.625 52.5H7.5C17.1688 52.5 25 44.6688 25 35V8.75C25 5.85156 22.6484 3.5 19.75 3.5H5.75C2.85156 3.5 0.5 5.85156 0.5 8.75V22.75C0.5 25.6484 2.85156 28 5.75 28ZM37.25 28H46V35C46 38.8609 42.8609 42 39 42H38.125C36.6703 42 35.5 43.1703 35.5 44.625V49.875C35.5 51.3297 36.6703 52.5 38.125 52.5H39C48.6688 52.5 56.5 44.6688 56.5 35V8.75C56.5 5.85156 54.1484 3.5 51.25 3.5H37.25C34.3516 3.5 32 5.85156 32 8.75V22.75C32 25.6484 34.3516 28 37.25 28Z" fill="#242C38"></path></g><defs><clipPath id="clip0_1135_1772"><rect width="56" height="56" fill="white" transform="matrix(-1 0 0 -1 56.5 56)"></rect></clipPath></defs></svg>